<svg width="51" height="50" viewBox="0 0 51 50" fill="none" xmlns="http://www.w3.org/2000/svg">
<g clip-path="url(#clip0_1_988)">
<path d="M25.6594 6.24683H25.9375C28.5063 6.2562 41.5219 6.34995 45.0313 7.2937C46.0922 7.58173 47.0589 8.14315 47.8349 8.92185C48.6108 9.70056 49.1688 10.6693 49.4531 11.7312C49.7688 12.9187 49.9906 14.4906 50.1406 16.1125L50.1719 16.4375L50.2406 17.25L50.2656 17.575C50.4688 20.4312 50.4938 23.1062 50.4969 23.6906V23.925C50.4938 24.5312 50.4656 27.3874 50.2406 30.3624L50.2156 30.6906L50.1875 31.0156C50.0313 32.8031 49.8 34.5781 49.4531 35.8843C49.1697 36.9467 48.612 37.9159 47.8359 38.6947C47.0598 39.4735 46.0926 40.0347 45.0313 40.3218C41.4063 41.2968 27.6281 41.3656 25.7188 41.3687H25.275C24.3094 41.3687 20.3156 41.35 16.1281 41.2062L15.5969 41.1875L15.325 41.1749L14.7906 41.1531L14.2563 41.1312C10.7875 40.9781 7.48438 40.7312 5.9625 40.3187C4.90153 40.0318 3.93458 39.4711 3.15851 38.6929C2.38245 37.9146 1.82452 36.9461 1.54063 35.8843C1.19375 34.5812 0.9625 32.8031 0.80625 31.0156L0.78125 30.6875L0.75625 30.3624C0.602024 28.2449 0.516562 26.123 0.5 24L0.5 23.6156C0.50625 22.9437 0.53125 20.6218 0.7 18.0593L0.721875 17.7375L0.73125 17.575L0.75625 17.25L0.825 16.4375L0.85625 16.1125C1.00625 14.4906 1.22813 12.9156 1.54375 11.7312C1.82717 10.6688 2.38488 9.69967 3.16098 8.92083C3.93708 8.14199 4.90428 7.58086 5.96563 7.2937C7.4875 6.88745 10.7906 6.63745 14.2594 6.4812L14.7906 6.45933L15.3281 6.44058L15.5969 6.4312L16.1313 6.40933C19.1053 6.31362 22.0806 6.26049 25.0563 6.24995H25.6594V6.24683ZM20.5 16.2781V31.3343L33.4906 23.8093L20.5 16.2781Z" fill="#999999"/>
</g>
<defs>
<clipPath id="clip0_1_988">
<rect width="50" height="50" fill="white" transform="translate(0.5)"/>
</clipPath>
</defs>
</svg>
