<svg width="45" height="35" viewBox="0 0 45 35" fill="none" xmlns="http://www.w3.org/2000/svg">
<path fill-rule="evenodd" clip-rule="evenodd" d="M28.1095 20.8509L28.1953 20.5077L30.6831 28.1427L30.3829 28.5717V28.5288L30.2971 28.7003C23.1339 38.2227 7.94965 36.3783 2.33061 26.6844C-3.63157 16.3899 2.4164 2.79274 14.0834 0.34782C15.2844 0.133354 16.5283 0.004673 17.7722 0.004673C23.3055 0.004673 29.139 2.4067 32.0986 7.25365L34.4149 0.94833H41.621L36.1735 16.0897L39.6908 25.8694C40.0768 26.8559 41.1491 27.4135 42.1357 27.1562L42.4359 27.0704L44.3661 33.5473L42.0499 34.1478C38.7471 34.9628 35.3585 33.2899 34.1146 30.1158C33.8144 29.5582 33.5141 28.9577 33.2996 28.3143L32.0128 24.9257L31.927 24.797V24.7542L29.0532 16.0468C27.4661 11.2427 24.5065 8.9265 22.1474 7.98284C20.8606 7.38233 19.4022 7.08208 17.858 7.08208C11.8958 7.08208 7.09178 11.8432 7.09178 17.6767C7.09178 23.5102 11.8958 28.2714 17.858 28.2714C22.6621 28.2714 26.7369 25.1402 28.1095 20.8509Z" fill="url(#paint0_linear_1_1082)"/>
<defs>
<linearGradient id="paint0_linear_1_1082" x1="0.0572649" y1="0.493659" x2="42.9507" y2="0.493659" gradientUnits="userSpaceOnUse">
<stop stop-color="#7A5FFF"/>
<stop offset="1" stop-color="#00E824"/>
</linearGradient>
</defs>
</svg>
