<svg width="742" height="672" viewBox="0 0 742 672" fill="none" xmlns="http://www.w3.org/2000/svg">
<g clip-path="url(#clip0_1_1089)">
<g opacity="0.3">
<path d="M595.881 307.359H694.631V380.934H595.881V307.359ZM486.908 50.9338H585.659V123.478H487.41V132.956H585.659V210.681H487.41V220.156H585.659V297.882H487.41V307.359H585.659V380.934H486.908V50.9338ZM595.881 132.956H694.631V210.681H595.881V132.956ZM595.881 220.156H694.631V297.88H595.881V220.156ZM694.631 123.478H595.881V50.9338H694.631V123.478ZM478.752 393.891H702.787V37.9771H478.752V393.891Z" stroke="black" stroke-width="1.484" stroke-miterlimit="10" stroke-linecap="round" stroke-linejoin="round"/>
<path d="M571.506 72.6257L521.685 113.857" stroke="black" stroke-width="1.484" stroke-miterlimit="10" stroke-linecap="round" stroke-linejoin="round"/>
<path d="M670.291 153.371L620.47 194.602" stroke="black" stroke-width="1.484" stroke-miterlimit="10" stroke-linecap="round" stroke-linejoin="round"/>
<path d="M557.761 327.748L507.94 368.979" stroke="black" stroke-width="1.484" stroke-miterlimit="10" stroke-linecap="round" stroke-linejoin="round"/>
<path d="M545.378 84.6511L522.542 103.549" stroke="black" stroke-width="1.484" stroke-miterlimit="10" stroke-linecap="round" stroke-linejoin="round"/>
<path d="M666.496 143.923L643.661 162.82" stroke="black" stroke-width="1.484" stroke-miterlimit="10" stroke-linecap="round" stroke-linejoin="round"/>
<path d="M554.827 340.633L531.992 359.53" stroke="black" stroke-width="1.484" stroke-miterlimit="10" stroke-linecap="round" stroke-linejoin="round"/>
<path d="M547.954 249.58L525.12 268.478" stroke="black" stroke-width="1.484" stroke-miterlimit="10" stroke-linecap="round" stroke-linejoin="round"/>
<path d="M664.78 329.465L641.943 348.363" stroke="black" stroke-width="1.484" stroke-miterlimit="10" stroke-linecap="round" stroke-linejoin="round"/>
<path d="M465.85 393.656H716.677V424.815H465.85V393.656Z" stroke="black" stroke-width="1.484" stroke-miterlimit="10" stroke-linecap="round" stroke-linejoin="round"/>
</g>
<path d="M591.872 278.478C583.391 299.685 555.052 309.005 528.576 299.296C502.099 289.585 487.509 264.519 495.991 243.312C504.47 222.103 532.809 212.783 559.286 222.493C585.763 232.204 600.353 257.269 591.872 278.478Z" fill="#21A038"/>
<path d="M495.989 243.312C504.469 222.103 532.808 212.783 559.285 222.493C585.763 232.204 600.352 257.269 591.872 278.478C583.392 299.686 555.053 309.007 528.576 299.296C502.098 289.585 487.509 264.52 495.989 243.312Z" stroke="#111311" stroke-width="1.44526" stroke-miterlimit="10" stroke-linecap="round" stroke-linejoin="round"/>
<path d="M512.154 275.322C512.154 275.322 501.513 277.108 497.686 270.787C493.858 264.466 503.225 248.279 511.992 241.372C520.757 234.462 542.856 233.441 553.844 235.873C564.83 238.306 576.85 248.476 577.409 257.879C577.97 267.286 572.985 275.838 572.342 278.719C571.699 281.598 565.19 280.885 564.466 279.332C563.74 277.776 552.802 254.938 550.15 253.665C547.498 252.391 545.363 254.123 542.102 255.488C538.841 256.852 514.389 264.501 514.389 264.501L512.154 275.322Z" fill="#111311" stroke="#111311" stroke-width="1.44526" stroke-miterlimit="10" stroke-linecap="round" stroke-linejoin="round"/>
<path d="M516.799 514.335L516.564 483.508L501.354 519.231L501.354 519.234C498.296 523.393 494.608 528.794 492.669 533.093C488.994 541.248 498.023 569.289 499.249 566.572C500.473 563.853 510.218 528.286 510.218 528.286C510.218 528.286 511.957 522.186 512.238 517.279L516.799 514.335Z" fill="#9D9D9D" stroke="#111311" stroke-width="1.44526" stroke-miterlimit="10" stroke-linecap="round" stroke-linejoin="round"/>
<path d="M510.917 535.143C510.917 535.143 500.984 537.457 498.023 558.317C497.215 564.005 496.538 624.605 495.119 634.6L489.234 676.057L541.488 681.752L553.525 643.09L552.895 682.146L605.303 687.858C605.303 687.858 619.165 627.708 620.638 620.214C622.111 612.719 628.058 596.782 630.057 574.037C632.058 551.29 628.469 541.969 628.469 541.969L513.218 527.282L510.917 535.143Z" fill="#111311" stroke="#111311" stroke-width="1.44526" stroke-miterlimit="10" stroke-linecap="round" stroke-linejoin="round"/>
<path d="M547.059 329.168C547.059 329.168 519.571 348.179 513.438 353.541C507.078 359.101 504.567 393.309 508.28 417.477C511.991 441.645 514.326 478.636 513.643 485.987C512.963 493.337 507.918 537.184 507.918 537.184C507.918 537.184 548.975 559.874 576.257 558.408C603.542 556.941 624.14 547.317 624.14 547.317C624.14 547.317 630.515 471.906 632.839 455.453C635.162 439.001 639.348 384.14 638.524 364.744C637.702 345.348 627.023 332.67 618.056 330.572C609.087 328.477 575.193 323.145 575.193 323.145L547.059 329.168Z" fill="#9D9D9D" stroke="#111311" stroke-width="1.44526" stroke-miterlimit="10" stroke-linecap="round" stroke-linejoin="round"/>
<path d="M532.499 323.386C532.499 323.386 538.972 356.828 540.764 357.349C542.558 357.869 548.179 353.299 548.179 353.299L572.242 323.85L568.566 293.842C568.566 293.842 561.93 308.785 551.956 317.739C541.985 326.693 532.499 323.386 532.499 323.386Z" fill="#9D9D9D" stroke="#111311" stroke-width="1.44526" stroke-miterlimit="10" stroke-linecap="round" stroke-linejoin="round"/>
<path d="M554.631 319.131L536.718 340.994L532.242 323.123L554.631 319.131Z" fill="#111311" stroke="#111311" stroke-width="1.44526" stroke-miterlimit="10" stroke-linecap="round" stroke-linejoin="round"/>
<path d="M551.304 244.485C551.304 244.485 537.187 253.607 526.546 256.323C515.901 259.038 510.647 259.919 510.647 259.919C510.647 259.919 510.849 281.507 510.921 287.573C510.994 293.639 511.638 303.886 515.161 308.631C518.686 313.377 527.332 324.74 531.551 327.866C535.771 330.991 543.881 329.696 546.346 328.753C548.812 327.81 565.106 308.264 566.201 305.475C567.296 302.687 567.597 293.998 567.597 293.998C567.597 293.998 574.039 291.307 575.43 288.067C576.823 284.827 576.516 272.193 574.918 270.322C573.317 268.452 570.061 270.035 569.331 271.894C568.601 273.753 566.818 276.466 566.818 276.466C566.818 276.466 567.299 271.43 565.902 268.128C564.506 264.825 564.676 263.631 560.82 259.577C556.965 255.522 551.304 244.485 551.304 244.485Z" fill="#9D9D9D" stroke="#111311" stroke-width="1.44526" stroke-miterlimit="10" stroke-linecap="round" stroke-linejoin="round"/>
<path d="M529.193 289.543L528.967 296.161C528.967 296.161 536.674 296.759 540.709 293.266" stroke="#111311" stroke-width="1.44526" stroke-miterlimit="10" stroke-linecap="round" stroke-linejoin="round"/>
<path d="M523.938 302.389C523.938 302.389 529.26 304.958 538.263 303.226C547.266 301.495 550.254 295.384 550.254 295.384" stroke="#111311" stroke-width="1.44526" stroke-miterlimit="10" stroke-linecap="round" stroke-linejoin="round"/>
<path d="M525.845 273.155C525.845 273.155 516.15 268.578 512.322 274.329" stroke="#111311" stroke-width="1.44526" stroke-miterlimit="10" stroke-linecap="round" stroke-linejoin="round"/>
<path d="M536.676 270.668C536.676 270.668 544.298 264.594 551.06 268.224" stroke="#111311" stroke-width="1.44526" stroke-miterlimit="10" stroke-linecap="round" stroke-linejoin="round"/>
<path d="M523.65 282.069C524.105 283.99 523.706 285.721 522.762 285.932C521.82 286.142 520.686 284.755 520.232 282.833C519.781 280.91 520.175 279.179 521.119 278.969C522.064 278.759 523.196 280.145 523.65 282.069Z" fill="#111311"/>
<path d="M546.366 278.068C546.82 279.991 546.422 281.72 545.477 281.931C544.535 282.141 543.402 280.755 542.947 278.832C542.495 276.909 542.891 275.178 543.836 274.969C544.78 274.758 545.911 276.145 546.366 278.068Z" fill="#111311"/>
<path d="M591.776 369.311L601.14 445.613C601.14 445.613 599.612 449.129 599.999 451.386C600.385 453.643 600.478 455.496 600.478 455.496C600.478 455.496 590.995 483.939 583.746 501.198C576.496 518.457 554.002 555.393 554.088 559.829C554.176 564.266 545.564 596.494 547.423 598.178C549.282 599.862 553.784 602.583 555.157 602.737C556.527 602.892 562.604 604.313 564.661 604.545C566.719 604.776 574.316 605.262 576.088 602.51C577.858 599.759 577.766 597.904 575.607 598.4C573.45 598.895 569.969 598.872 569.969 598.872L568.997 595.811C568.997 595.811 572.46 583.291 572.044 573.653C571.626 564.015 571.389 560.67 571.389 560.67C571.389 560.67 624.405 491.757 628.018 478.146C631.63 464.536 636.472 449.589 637.421 442.687C638.37 435.786 640.048 372.898 638.939 365.766C637.831 358.633 637.751 351.615 633.062 345.186C628.371 338.757 624.598 338.332 621.853 338.023" fill="#9D9D9D"/>
<path d="M591.776 369.311L601.14 445.613C601.14 445.613 599.612 449.129 599.999 451.386C600.385 453.643 600.478 455.496 600.478 455.496C600.478 455.496 590.995 483.939 583.746 501.198C576.496 518.457 554.002 555.393 554.088 559.829C554.176 564.266 545.564 596.494 547.423 598.178C549.282 599.862 553.784 602.583 555.157 602.737C556.527 602.892 562.604 604.313 564.661 604.545C566.719 604.776 574.316 605.262 576.088 602.51C577.858 599.759 577.766 597.904 575.607 598.4C573.45 598.895 569.969 598.872 569.969 598.872L568.997 595.811C568.997 595.811 572.46 583.291 572.044 573.653C571.626 564.015 571.389 560.67 571.389 560.67C571.389 560.67 624.405 491.757 628.018 478.146C631.63 464.536 636.472 449.589 637.421 442.687C638.37 435.786 640.048 372.898 638.939 365.766C637.831 358.633 637.751 351.615 633.062 345.186C628.371 338.757 624.598 338.332 621.853 338.023" stroke="#111311" stroke-width="1.44526" stroke-miterlimit="10" stroke-linecap="round" stroke-linejoin="round"/>
<path d="M603.371 454.099C603.371 454.099 614.59 450.58 623.082 455.956" stroke="#111311" stroke-width="1.44526" stroke-miterlimit="10" stroke-linecap="round" stroke-linejoin="round"/>
<path d="M611.219 447.009C611.219 447.009 623.909 445.181 630.257 455.509" stroke="#111311" stroke-width="1.44526" stroke-miterlimit="10" stroke-linecap="round" stroke-linejoin="round"/>
<path d="M589.616 487.716C587.878 492.249 586.119 496.663 584.474 500.522C577.088 517.851 554.182 554.95 554.265 559.402C554.349 563.856 545.56 596.214 547.446 597.904C549.334 599.593 553.905 602.318 555.301 602.472C556.696 602.625 562.867 604.046 564.959 604.277C567.05 604.507 574.769 604.988 576.573 602.225C578.377 599.461 578.284 597.598 576.089 598.098C573.898 598.597 570.359 598.577 570.359 598.577L569.375 595.507C569.375 595.507 572.908 582.936 572.497 573.262C572.085 563.589 571.849 560.23 571.849 560.23C571.849 560.23 597.774 526.969 614.912 502.006C607.558 491.596 596.871 488.517 589.616 487.716Z" fill="#9D9D9D" stroke="#111311" stroke-width="1.44526" stroke-miterlimit="10" stroke-linecap="round" stroke-linejoin="round"/>
<path d="M562.5 596.41C562.5 596.41 565.591 599.902 566.673 601.024C567.756 602.145 568.024 603.178 570.293 603.712" fill="#9D9D9D"/>
<path d="M562.5 596.41C562.5 596.41 565.591 599.902 566.673 601.024C567.756 602.145 568.024 603.178 570.293 603.712" stroke="#111311" stroke-width="1.44526" stroke-miterlimit="10" stroke-linecap="round" stroke-linejoin="round"/>
<path d="M555.127 597.33C555.127 597.33 559.97 602.022 563.202 603.22L555.127 597.33Z" fill="#9D9D9D"/>
<path d="M555.127 597.33C555.127 597.33 559.97 602.022 563.202 603.22" stroke="#111311" stroke-width="1.44526" stroke-miterlimit="10" stroke-linecap="round" stroke-linejoin="round"/>
<path d="M549.293 595.765C549.293 595.765 551.352 599.388 553.962 600.965L549.293 595.765Z" fill="#9D9D9D"/>
<path d="M549.293 595.765C549.293 595.765 551.352 599.388 553.962 600.965" stroke="#111311" stroke-width="1.44526" stroke-miterlimit="10" stroke-linecap="round" stroke-linejoin="round"/>
<path d="M509.452 526.078C509.452 526.078 509.348 535.994 509.63 537.634C509.912 539.275 508.754 542.098 508.409 548.23C508.066 554.362 508.691 560.869 505.068 559.394C501.442 557.917 501.118 547.42 501.738 544.804C502.357 542.191 498.935 533.762 498.935 533.762" fill="#9D9D9D"/>
<path d="M509.452 526.078C509.452 526.078 509.348 535.994 509.63 537.634C509.912 539.275 508.754 542.098 508.409 548.23C508.066 554.362 508.691 560.869 505.068 559.394C501.442 557.917 501.118 547.42 501.738 544.804C502.357 542.191 498.935 533.762 498.935 533.762" stroke="#111311" stroke-width="1.44526" stroke-miterlimit="10" stroke-linecap="round" stroke-linejoin="round"/>
<path d="M442.488 475.682C439.641 467.729 424.258 360.708 424.258 360.708C417.139 375.386 404.688 449.944 404.688 449.944L402.941 489.952L401.489 497.343C409.45 492.778 428.653 484.088 438.896 499.099C439.174 498.387 439.385 497.784 439.52 497.305C442.276 487.446 445.336 483.635 442.488 475.682Z" fill="#21A038"/>
<path d="M442.488 475.682C439.641 467.729 424.258 360.708 424.258 360.708C417.139 375.386 404.688 449.944 404.688 449.944L402.941 489.952L401.489 497.343C409.45 492.778 428.653 484.088 438.896 499.099C439.174 498.387 439.385 497.784 439.52 497.305C442.276 487.446 445.336 483.635 442.488 475.682Z" stroke="#111311" stroke-width="1.54913" stroke-miterlimit="10" stroke-linecap="round" stroke-linejoin="round"/>
<path d="M433.434 484.767C435.39 485.302 437.261 486.045 438.971 487.051" stroke="#111311" stroke-width="1.54913" stroke-miterlimit="10" stroke-linecap="round" stroke-linejoin="round"/>
<path d="M405.582 485.446C405.582 485.446 415.838 482.586 426.324 483.545" stroke="#111311" stroke-width="1.54913" stroke-miterlimit="10" stroke-linecap="round" stroke-linejoin="round"/>
<path d="M437.643 481.009C437.643 481.009 429.703 474.664 422.479 476.266" stroke="#111311" stroke-width="1.54913" stroke-miterlimit="10" stroke-linecap="round" stroke-linejoin="round"/>
<path d="M240.274 673.516L252.082 593.039L263.114 549.309L392.59 556.849L400.148 589.649L394.964 689.085L329.714 682.965L325.508 616.387L321.198 622.353L312.678 679.951L240.274 673.516Z" fill="#111311" stroke="#111311" stroke-width="1.54913" stroke-miterlimit="10" stroke-linecap="round" stroke-linejoin="round"/>
<path d="M320.781 333.665C320.781 333.665 263.235 343.716 259.629 345.135C256.021 346.552 257.01 399.705 259.893 419.303C262.777 438.902 266.852 510.266 266.852 510.266L259.719 560.898C259.719 560.898 314.138 567.421 336.33 566.696C358.521 565.972 383.236 561.97 383.236 561.97C383.236 561.97 396.538 517.891 397.536 488.116C398.532 458.34 415.36 385.779 416.075 380.925C416.792 376.074 422.468 358.334 422.468 358.334C422.468 358.334 382.522 341.226 372.003 338.832C361.484 336.437 336.453 333.381 320.781 333.665Z" fill="#21A038" stroke="#111311" stroke-width="1.54913" stroke-miterlimit="10" stroke-linecap="round" stroke-linejoin="round"/>
<path d="M306.1 346.275C306.1 346.275 311.232 366.552 326.647 380.146" stroke="#111311" stroke-width="1.54913" stroke-miterlimit="10" stroke-linecap="round" stroke-linejoin="round"/>
<path d="M365.354 349.15C365.354 349.15 361.473 356.387 355.675 364.089" stroke="#111311" stroke-width="1.54913" stroke-miterlimit="10" stroke-linecap="round" stroke-linejoin="round"/>
<path d="M354.183 368.07L350.799 371.856" stroke="#111311" stroke-width="1.54913" stroke-miterlimit="10" stroke-linecap="round" stroke-linejoin="round"/>
<path d="M312.85 558.636C326.184 559.31 350.702 559.846 367.073 556.001" stroke="#111311" stroke-width="1.54913" stroke-miterlimit="10" stroke-linecap="round" stroke-linejoin="round"/>
<path d="M303.384 558.073C303.384 558.073 304.895 558.202 307.502 558.364" stroke="#111311" stroke-width="1.54913" stroke-miterlimit="10" stroke-linecap="round" stroke-linejoin="round"/>
<path d="M359.528 549.007C341.869 549.671 315.269 549.17 295.277 542.182" stroke="#111311" stroke-width="1.54913" stroke-miterlimit="10" stroke-linecap="round" stroke-linejoin="round"/>
<path d="M378.341 548.273C378.341 548.273 373.85 548.711 366.676 549.007" stroke="#111311" stroke-width="1.54913" stroke-miterlimit="10" stroke-linecap="round" stroke-linejoin="round"/>
<path d="M379.463 523.986C368.319 529.018 347.162 537.281 326.828 538.106" stroke="#111311" stroke-width="1.54913" stroke-miterlimit="10" stroke-linecap="round" stroke-linejoin="round"/>
<path d="M387.505 520.198C387.505 520.198 385.982 520.998 383.289 522.26" stroke="#111311" stroke-width="1.54913" stroke-miterlimit="10" stroke-linecap="round" stroke-linejoin="round"/>
<path d="M313.174 314.18L312.047 342.383C312.047 342.383 317.8 363.432 337.187 363.927C356.2 364.413 362.075 339.839 362.075 339.839L361.927 309.946C361.927 309.946 343.592 322.694 334.462 320.58C325.333 318.467 313.174 314.18 313.174 314.18Z" fill="#9D9D9D" stroke="#111311" stroke-width="1.54913" stroke-miterlimit="10" stroke-linecap="round" stroke-linejoin="round"/>
<path d="M297.093 279.897C297.093 279.897 294.236 275.068 291.148 278.904C288.06 282.739 289.762 293.973 294.179 296.776C298.596 299.58 299.84 299.697 299.84 299.697C299.84 299.697 303.821 311.144 306.246 314.629C308.673 318.114 327.355 335.284 332.2 336.609C337.046 337.932 344.312 337.095 347.448 334.349C350.585 331.604 361.911 311.823 363.881 307.014C365.852 302.205 366.217 301.154 366.661 298.156C367.104 295.157 367.276 292.568 367.276 292.568C367.276 292.568 373.149 285.521 374.448 279.563C375.749 273.606 374.963 268.972 371.981 267.824C369.001 266.675 364.737 272.788 364.737 272.788L358.42 238.758C358.42 238.758 356.019 229.412 353.07 228.049C350.119 226.687 327.538 227.388 317.613 230.581C307.689 233.775 297.939 237.201 296.653 241.641C295.367 246.08 297.093 279.897 297.093 279.897Z" fill="#9D9D9D" stroke="#111311" stroke-width="1.54913" stroke-miterlimit="10" stroke-linecap="round" stroke-linejoin="round"/>
<path d="M319.063 235.5C319.063 235.5 300.748 237.503 299.334 240.415C297.92 243.326 295.789 248.877 297.085 253.396C298.382 257.916 297.661 280.51 297.661 280.51C297.661 280.51 299.533 287.79 297.74 286.607C295.949 285.425 295.568 276.932 295.07 275.871C294.573 274.81 288.54 258.007 286.843 251.758C285.147 245.511 291.157 240.324 292.647 239.111C294.136 237.897 295.726 236.017 295.726 236.017C295.726 236.017 295.541 226.19 300.383 222.246C305.227 218.304 337.235 214.54 339.968 213.782C342.702 213.022 346.126 207.594 348.585 206.471C351.045 205.349 357.336 209.321 360.304 218.056C363.27 226.79 362.602 229.096 361.061 230.642L359.523 232.19C359.523 232.19 363.948 233.28 364.949 239.803C365.95 246.323 367.645 252.57 366.906 257.576C366.165 262.58 364.252 272.157 364.105 273.158C363.956 274.16 362.969 273.105 362.494 269.677C362.017 266.251 356.897 241.076 355.999 238.286C355.102 235.496 353.882 232.675 353.383 231.614C352.885 230.553 326.239 229.068 319.063 235.5Z" fill="#111311" stroke="#111311" stroke-width="1.54913" stroke-miterlimit="10" stroke-linecap="round" stroke-linejoin="round"/>
<path d="M332.597 336.504C337.47 337.833 344.776 336.992 347.931 334.235C351.086 331.477 362.474 311.61 364.457 306.78C366.439 301.95 366.806 300.894 367.252 297.882C367.698 294.871 367.871 292.269 367.871 292.269L366.004 271.503C365.817 271.737 365.665 271.934 365.551 272.086C365.269 278.42 364.677 290.642 364.267 292.369C363.707 294.716 360.824 297.062 358.262 297.257C355.698 297.453 344.107 294.404 338.835 294.345C333.564 294.287 331.61 296.066 327.333 297.847C323.056 299.627 314.166 304.026 311.987 304.476C309.808 304.927 306.071 303.05 304.723 300.741C303.374 298.436 298.772 279.766 298.772 279.766C298.628 280.924 297.204 283.027 297.204 283.027L300.058 299.432C300.058 299.432 304.06 310.93 306.5 314.43C308.939 317.931 327.724 335.176 332.597 336.504Z" fill="#111311"/>
<path d="M332.597 336.504C337.47 337.833 344.776 336.992 347.931 334.235C351.086 331.477 362.474 311.61 364.457 306.78C366.439 301.95 366.806 300.894 367.252 297.882C367.698 294.871 367.871 292.269 367.871 292.269L366.004 271.503C365.817 271.737 365.665 271.934 365.551 272.086C365.269 278.42 364.677 290.642 364.267 292.369C363.707 294.716 360.824 297.062 358.262 297.257C355.698 297.453 344.107 294.404 338.835 294.345C333.564 294.287 331.61 296.066 327.333 297.847C323.056 299.627 314.166 304.026 311.987 304.476C309.808 304.927 306.071 303.05 304.723 300.741C303.374 298.436 298.772 279.766 298.772 279.766C298.628 280.924 297.204 283.027 297.204 283.027L300.058 299.432C300.058 299.432 304.06 310.93 306.5 314.43C308.939 317.931 327.724 335.176 332.597 336.504Z" stroke="#111311" stroke-width="1.54913" stroke-miterlimit="10" stroke-linecap="round" stroke-linejoin="round"/>
<path d="M338.65 264.342C338.65 264.342 334.655 267.998 335.122 269.333C335.59 270.671 340.947 294.814 340.378 297.329C339.811 299.843 336.198 300.753 333.523 299.615C330.849 298.478 329.974 290.667 329.974 290.667" fill="#9D9D9D"/>
<path d="M338.65 264.342C338.65 264.342 334.655 267.998 335.122 269.333C335.59 270.671 340.947 294.814 340.378 297.329C339.811 299.843 336.198 300.753 333.523 299.615C330.849 298.478 329.974 290.667 329.974 290.667" stroke="#111311" stroke-width="1.54913" stroke-miterlimit="10" stroke-linecap="round" stroke-linejoin="round"/>
<path d="M342.372 262.617C342.372 262.617 350.55 258.28 356.818 262.371" stroke="#111311" stroke-width="4.64738" stroke-miterlimit="10" stroke-linecap="round" stroke-linejoin="round"/>
<path d="M322.066 265.248C322.066 265.248 310.677 261.15 304.736 269.697" stroke="#111311" stroke-width="4.64738" stroke-miterlimit="10" stroke-linecap="round" stroke-linejoin="round"/>
<path d="M319.708 275.854C319.947 277.659 319.241 279.253 318.135 279.415C317.029 279.575 315.94 278.24 315.703 276.434C315.464 274.628 316.17 273.035 317.274 272.875C318.381 272.713 319.471 274.048 319.708 275.854Z" fill="#111311"/>
<path d="M315.665 276.436C315.39 274.635 316.08 273.043 317.207 272.879C318.335 272.716 319.471 274.044 319.747 275.845C320.022 277.646 319.331 279.238 318.204 279.402C317.077 279.565 315.94 278.237 315.665 276.436Z" stroke="#111311" stroke-width="1.54913" stroke-miterlimit="10" stroke-linecap="round" stroke-linejoin="round"/>
<path d="M348.341 271.544C348.577 273.348 347.875 274.943 346.767 275.103C345.662 275.264 344.572 273.929 344.337 272.124C344.098 270.318 344.803 268.725 345.908 268.565C347.015 268.403 348.105 269.738 348.341 271.544Z" fill="#111311"/>
<path d="M344.3 272.132C344.025 270.331 344.716 268.739 345.843 268.575C346.97 268.412 348.107 269.74 348.382 271.541C348.657 273.342 347.967 274.934 346.84 275.097C345.712 275.261 344.575 273.933 344.3 272.132Z" stroke="#111311" stroke-width="1.54913" stroke-miterlimit="10" stroke-linecap="round" stroke-linejoin="round"/>
<path d="M324.432 308.807C324.432 308.807 338.956 313.475 348.64 304.462" stroke="#111311" stroke-width="1.54913" stroke-miterlimit="10" stroke-linecap="round" stroke-linejoin="round"/>
<path d="M441.27 497.284C441.21 497.502 441.129 497.75 441.04 498.015C441.129 497.752 441.21 497.502 441.27 497.284Z" stroke="#111311" stroke-width="1.54913" stroke-miterlimit="10" stroke-linecap="round" stroke-linejoin="round"/>
<path d="M440.539 497.949C430.098 482.844 410.488 491.61 402.357 496.211L393.9 532.798L391.201 539.575C391.201 539.575 375.533 553.571 373.396 556.532C371.259 559.495 368.217 561.671 365.95 563.214C363.681 564.758 359.118 565.736 358.475 567.786C357.832 569.834 364.386 571.505 366.552 570.653C368.717 569.802 374.566 564.726 374.566 564.726L370.216 573.458L394.967 587.735C394.967 587.735 397.486 579.888 398.874 575.096C400.262 570.306 402.956 558.96 403.598 556.91C404.224 554.914 436.495 509.337 440.882 497.037C440.781 497.319 440.67 497.619 440.539 497.949Z" fill="#9D9D9D" stroke="#111311" stroke-width="1.54913" stroke-miterlimit="10" stroke-linecap="round" stroke-linejoin="round"/>
<path d="M258.006 344.228C258.006 344.228 250.407 350.155 248.12 356.589C245.833 363.022 213.216 443.166 206.417 455.12C199.62 467.074 197.491 477.022 199.771 482.139C202.052 487.254 249.229 530.634 249.229 530.634C249.229 530.634 252.373 550.532 253.326 555.522C254.277 560.513 256.053 569.079 256.053 569.079L278.096 561.02C278.096 561.02 281.422 565.886 283.774 568.21C286.127 570.532 289.293 571.883 290.262 569.876C291.228 567.866 288.104 561.621 288.104 561.621C288.104 561.621 286.72 557.289 286.893 553.806C287.066 550.322 282.997 543.637 281.459 540.341C279.924 537.046 265.326 524.111 265.326 524.111L239.24 467.683L258.297 418.1C258.297 418.1 253.942 358.192 258.006 344.228Z" fill="#9D9D9D" stroke="#111311" stroke-width="1.54913" stroke-miterlimit="10" stroke-linecap="round" stroke-linejoin="round"/>
<path d="M237.856 467.453L257.76 425.843C257.76 425.843 252.407 358.17 256.437 344.233C256.437 344.233 248.893 350.148 246.625 356.568C244.357 362.989 212.007 442.974 205.263 454.904C198.519 466.834 196.409 476.764 198.676 481.87C199.317 483.32 203.029 489.823 211.213 495.715C214.945 489.99 224.433 476.763 241.501 477.171L237.856 467.453Z" fill="#21A038" stroke="#111311" stroke-width="1.54913" stroke-miterlimit="10" stroke-linecap="round" stroke-linejoin="round"/>
<path d="M213.94 462.341C213.94 462.341 224.471 461.82 233.506 466.792" stroke="#111311" stroke-width="1.54913" stroke-miterlimit="10" stroke-linecap="round" stroke-linejoin="round"/>
<path d="M228.08 460.68C228.08 460.68 236.379 463.907 239.005 467.385" stroke="#111311" stroke-width="1.54913" stroke-miterlimit="10" stroke-linecap="round" stroke-linejoin="round"/>
<path d="M404.683 531.271C404.683 531.271 379.976 582.232 383.228 611.281C386.482 640.327 388.366 675.382 388.366 675.382L481.704 684.163C481.704 684.163 496.531 650.036 497.914 628.851C499.293 607.666 499.76 583.812 499.76 583.812L502.355 522.696L409.325 513.944L404.683 531.271Z" fill="#111311" stroke="#111311" stroke-width="1.484" stroke-miterlimit="10" stroke-linecap="round" stroke-linejoin="round"/>
<path d="M443.31 587.553C443.31 587.553 454.323 622.609 457.771 649.562C461.218 676.514 460.339 681.24 460.339 681.24" stroke="#111311" stroke-width="1.484" stroke-miterlimit="10" stroke-linecap="round" stroke-linejoin="round"/>
<path d="M456.677 617.583C456.677 617.583 474.853 604.735 481.944 588.026" stroke="#111311" stroke-width="1.484" stroke-miterlimit="10" stroke-linecap="round" stroke-linejoin="round"/>
<path d="M476.288 378.843L430.978 389.693C430.978 389.693 443.408 416.946 444.057 454.356C444.704 491.766 437.929 529.119 437.929 529.119C437.929 529.119 448.391 537.192 470.131 536.672C491.873 536.151 499.833 524.347 499.833 524.347C499.833 524.347 505.919 462.461 500.985 437.201C496.049 411.943 476.288 378.843 476.288 378.843Z" fill="#21A038" stroke="#111311" stroke-width="1.484" stroke-miterlimit="10" stroke-linecap="round" stroke-linejoin="round"/>
<path d="M421.733 263.285C421.733 263.285 411.249 261.425 405.245 273.413C399.244 285.4 381.322 327.497 382.648 337.254C383.975 347.01 389.154 350.708 390.094 361.302C391.033 371.899 385.227 377.775 385.227 377.775C385.227 377.775 388.413 383.912 397.854 385.089C407.297 386.268 422.481 379.813 432.245 378.394C442.01 376.977 463.168 376.921 476.521 376.13C489.873 375.341 493.915 365.505 493.915 365.505C493.915 365.505 484.888 365.533 485.046 359.711C485.206 353.889 495.143 332.931 493.94 317.641C492.739 302.351 473.696 285.385 465.429 277.02C457.162 268.655 449.273 261.786 439.553 260.581C429.832 259.376 423.872 259.692 421.733 263.285Z" fill="#111311" stroke="#111311" stroke-width="1.484" stroke-miterlimit="10" stroke-linecap="round" stroke-linejoin="round"/>
<path d="M409.78 316.514C409.78 316.514 399.817 330.589 399.309 343.84C398.803 357.09 408.22 358.863 410.333 357.332" stroke="#111311" stroke-width="1.484" stroke-miterlimit="10" stroke-linecap="round" stroke-linejoin="round"/>
<path d="M466.455 300.861C466.455 300.861 484.677 322.302 485.928 342.708" stroke="#111311" stroke-width="1.484" stroke-miterlimit="10" stroke-linecap="round" stroke-linejoin="round"/>
<path d="M430.905 351.897L436.972 379.364C436.972 379.364 453.675 404.876 462.594 402.336C471.512 399.794 466.244 375.339 466.365 371.972C466.487 368.605 465.882 351.962 465.882 351.962C465.882 351.962 458.811 361.127 455 360.769C451.188 360.411 430.905 351.897 430.905 351.897Z" fill="#9D9D9D" stroke="#111311" stroke-width="1.484" stroke-miterlimit="10" stroke-linecap="round" stroke-linejoin="round"/>
<path d="M431.109 281.85C431.109 281.85 412.22 309.36 411.729 313.321C411.237 317.282 419.978 342.765 422.608 347.945C425.239 353.125 446.271 365.891 451.234 366.666C456.197 367.44 461.915 362.122 463.66 357.66C465.402 353.202 471.942 341.167 472.477 334.176C472.677 331.564 467.237 301.494 464.779 299.721C462.322 297.948 431.109 281.85 431.109 281.85Z" fill="#9D9D9D" stroke="#111311" stroke-width="1.484" stroke-miterlimit="10" stroke-linecap="round" stroke-linejoin="round"/>
<path d="M435.942 323.22C435.942 323.22 430.435 320.084 426.565 324.953" stroke="#111311" stroke-width="1.484" stroke-miterlimit="10" stroke-linecap="round" stroke-linejoin="round"/>
<path d="M451.8 319.275C451.8 319.275 453.557 313.157 460.54 315.888" stroke="#111311" stroke-width="1.484" stroke-miterlimit="10" stroke-linecap="round" stroke-linejoin="round"/>
<path d="M433.259 314.752C433.259 314.752 424.173 312.964 420.811 319.129" stroke="#111311" stroke-width="1.484" stroke-miterlimit="10" stroke-linecap="round" stroke-linejoin="round"/>
<path d="M446.166 310.265C446.166 310.265 451.757 303.949 458.47 307.273" stroke="#111311" stroke-width="1.484" stroke-miterlimit="10" stroke-linecap="round" stroke-linejoin="round"/>
<path d="M452.115 332.518C452.115 332.518 448.735 336.628 444.479 334.843" stroke="#111311" stroke-width="1.484" stroke-miterlimit="10" stroke-linecap="round" stroke-linejoin="round"/>
<path d="M460.34 335.874C460.34 335.874 453.604 344.025 437.851 343.771C437.851 343.771 447.235 352.417 453.532 350.966C459.83 349.515 460.34 335.874 460.34 335.874Z" fill="#9D9D9D" stroke="#111311" stroke-width="1.484" stroke-miterlimit="10" stroke-linecap="round" stroke-linejoin="round"/>
<path d="M415.058 328.612C415.058 328.612 410.313 325.729 408.737 332.081C407.163 338.433 419.887 341.862 419.887 341.862L415.058 328.612Z" fill="#9D9D9D" stroke="#111311" stroke-width="1.484" stroke-miterlimit="10" stroke-linecap="round" stroke-linejoin="round"/>
<path d="M468.54 311.41C468.54 311.41 468.853 308.843 471.299 309.78C473.747 310.716 477.2 318.763 476.305 323.23C475.409 327.698 472.417 327.454 472.417 327.454L468.54 311.41Z" fill="#9D9D9D" stroke="#111311" stroke-width="1.484" stroke-miterlimit="10" stroke-linecap="round" stroke-linejoin="round"/>
<path d="M423.155 376.456C423.155 376.456 386.736 396.721 384.79 400.799C382.843 404.878 392.049 532.193 392.049 532.193C392.049 532.193 350.34 605.571 356.764 619.592C363.186 633.615 398.085 649.762 399.513 652.336C400.942 654.91 423.584 590.365 432.93 565.978C442.278 541.589 458.093 497.41 461.264 476.083C464.435 454.757 459.554 425.65 457.818 416.04C456.084 406.429 452.896 389.67 452.896 389.67L423.155 376.456Z" fill="#111311" stroke="#111311" stroke-width="1.484" stroke-miterlimit="10" stroke-linecap="round" stroke-linejoin="round"/>
<path d="M431.549 363.27C431.549 363.27 453.634 389.654 452.294 390.725C450.956 391.794 434.434 411.25 434.434 411.25L416.317 377.547L431.549 363.27Z" fill="#111311" stroke="#111311" stroke-width="1.484" stroke-miterlimit="10" stroke-linecap="round" stroke-linejoin="round"/>
<path d="M472.061 391.404C472.061 391.404 489.469 419.881 495.763 439.673C502.057 459.465 501.98 493.57 500.375 506.814L497.347 531.801C497.347 531.801 498.565 595.875 500.152 606.687C501.739 617.498 503.949 637.508 503.949 637.508C503.949 637.508 507.533 636.635 508.851 623.361C510.169 610.088 512.117 555.761 510.699 534C509.279 512.241 511.907 476.642 510.096 470.071L508.284 463.5L540.012 457.109C540.012 457.109 523.134 437.109 520.3 408.697C519.013 395.77 513.566 388.395 510.17 385.327C506.777 382.26 479.936 376.63 475.317 376.49C470.698 376.35 472.061 391.404 472.061 391.404Z" fill="#111311" stroke="#111311" stroke-width="1.484" stroke-miterlimit="10" stroke-linecap="round" stroke-linejoin="round"/>
<path d="M468.825 391.617C468.825 391.617 470.194 387.75 471.88 388.524C473.564 389.297 487.431 399.51 489.011 398.736C490.593 397.962 476.473 375.436 473.624 372.095C470.774 368.755 467.773 366.63 467.773 366.63L467.056 372.401L468.825 391.617Z" fill="#111311" stroke="#111311" stroke-width="1.484" stroke-miterlimit="10" stroke-linecap="round" stroke-linejoin="round"/>
<path d="M497.842 394.774C497.842 394.774 504.571 429.787 504.347 444.574L497.842 394.774Z" fill="#9D9D9D"/>
<path d="M497.842 394.774C497.842 394.774 504.571 429.787 504.347 444.574" stroke="#111311" stroke-width="1.484" stroke-miterlimit="10" stroke-linecap="round" stroke-linejoin="round"/>
<path d="M496.502 463.756C496.502 463.756 505.589 439.489 507.212 438.134C508.838 436.778 521.246 432.668 522.237 432.51C523.227 432.352 530.197 438.782 531.243 440.139C532.288 441.492 537.135 445.463 535.929 447.359C534.722 449.258 531.786 447.473 530.107 447.315C528.429 447.158 519.86 451.63 519.288 452.33C518.715 453.03 515.303 458.99 514.127 460.638C512.951 462.287 496.502 463.756 496.502 463.756Z" fill="#9D9D9D" stroke="#111311" stroke-width="1.484" stroke-miterlimit="10" stroke-linecap="round" stroke-linejoin="round"/>
<path d="M533.27 442.499C533.27 442.499 530.251 440.875 529.237 441.281C528.222 441.686 516.259 446.073 515.521 446.84C514.783 447.606 513.826 448.852 513.826 448.852" stroke="#111311" stroke-width="1.484" stroke-miterlimit="10" stroke-linecap="round" stroke-linejoin="round"/>
<path d="M511.175 444.811C511.175 444.811 513.41 442.345 515.459 441.368C517.512 440.39 524.518 438.375 525.355 438.121C526.191 437.866 529.172 438.482 529.172 438.482" stroke="#111311" stroke-width="1.484" stroke-miterlimit="10" stroke-linecap="round" stroke-linejoin="round"/>
<path d="M524.513 435.088C524.513 435.088 511.202 438.678 510.264 439.759L509.328 440.842" stroke="#111311" stroke-width="1.484" stroke-miterlimit="10" stroke-linecap="round" stroke-linejoin="round"/>
<path d="M509.902 460.714C509.902 460.714 523.008 453.044 528.585 451.111C534.159 449.179 544.436 454.751 546.146 457.674C547.859 460.598 548.876 473.895 547.378 483.578C545.879 493.262 545.059 497.482 538.348 499.001C531.639 500.52 522.699 500.906 521.781 501.127C520.866 501.348 522.284 482.755 517.96 472.217C513.637 461.679 509.902 460.714 509.902 460.714Z" fill="#111311" stroke="#111311" stroke-width="1.484" stroke-miterlimit="10" stroke-linecap="round" stroke-linejoin="round"/>
<path d="M493.716 464.977C493.716 464.977 492.357 499.792 494.169 504.253C495.981 508.714 501.939 508.357 508.264 507.419C514.586 506.482 523.908 505.216 524.463 503.121C525.018 501.028 527.242 480.7 525.079 471.915C522.916 463.129 518.114 456.547 513.581 457.346C509.047 458.145 494.354 459.827 493.716 464.977Z" fill="#111311" stroke="#111311" stroke-width="1.484" stroke-miterlimit="10" stroke-linecap="round" stroke-linejoin="round"/>
<path d="M459.362 518.113L499.213 490.779L484.88 478.739L454.253 488.331C454.253 488.331 459.943 510.017 459.362 518.113Z" fill="#9D9D9D" stroke="#111311" stroke-width="1.484" stroke-miterlimit="10" stroke-linecap="round" stroke-linejoin="round"/>
<path d="M439.12 533.805C439.12 533.805 442.909 534.163 448.662 530.225C454.416 526.288 459.516 523.782 459.642 511.097C459.771 498.409 456.221 478.653 453.685 475.922C451.15 473.192 432.557 474.422 431.931 475.607C431.307 476.795 443.457 500.602 443.03 513.757C442.604 526.914 439.12 533.805 439.12 533.805Z" fill="#111311" stroke="#111311" stroke-width="1.484" stroke-miterlimit="10" stroke-linecap="round" stroke-linejoin="round"/>
<path d="M390.52 401.98C390.52 401.98 388.505 396.414 383.585 400.629C378.662 404.846 374.684 417.669 375.818 433.716C376.952 449.763 377.333 516.548 379.648 524.985C381.96 533.422 384.096 541.345 389.988 542.151C395.881 542.958 415.639 542.086 429.573 537.922C443.505 533.761 444.801 517.445 442.034 502.987C439.266 488.528 432.404 476.174 427.854 472.258C423.306 468.34 421.247 463.663 417.281 453.077C413.316 442.491 404.633 415.769 401.773 411.761" fill="#111311"/>
<path d="M390.52 401.98C390.52 401.98 388.505 396.414 383.585 400.629C378.662 404.846 374.684 417.669 375.818 433.716C376.952 449.763 377.333 516.548 379.648 524.985C381.96 533.422 384.096 541.345 389.988 542.151C395.881 542.958 415.639 542.086 429.573 537.922C443.505 533.761 444.801 517.445 442.034 502.987C439.266 488.528 432.404 476.174 427.854 472.258C423.306 468.34 421.247 463.663 417.281 453.077C413.316 442.491 404.633 415.769 401.773 411.761" stroke="#111311" stroke-width="1.484" stroke-miterlimit="10" stroke-linecap="round" stroke-linejoin="round"/>
<path d="M402.58 495.834C401.233 496.826 399.855 497.703 398.459 498.409" stroke="#111311" stroke-width="1.484" stroke-miterlimit="10" stroke-linecap="round" stroke-linejoin="round"/>
<path d="M419.9 476.412C419.9 476.412 413.855 485.913 406.082 492.982" stroke="#111311" stroke-width="1.484" stroke-miterlimit="10" stroke-linecap="round" stroke-linejoin="round"/>
<path d="M499.127 468.374C499.127 468.374 463.087 468.521 453.914 467.39C444.743 466.261 432.282 459.96 432.282 459.96C432.282 459.96 417.374 451.634 414.199 449.542C411.025 447.448 403.033 446.686 400.729 447.491C398.425 448.294 393.085 451.878 393.502 454.475C393.92 457.072 397.042 455.58 398.65 454.453C400.26 453.329 402.804 452.547 402.804 452.547L410.34 455.055L411.544 457.218C411.544 457.218 400.64 458.225 399.093 458.845C397.546 459.465 392.254 468.678 391.279 470.634C390.304 472.587 391.062 472.402 392.514 472.54L393.968 472.679C393.968 472.679 392.746 476.655 394.137 477.299C395.529 477.942 397.591 477.116 397.591 477.116C397.591 477.116 399.069 479.049 399.796 479.118C400.523 479.187 408.557 475.603 409.861 474.96C411.164 474.317 421.301 477.585 423.965 477.839C426.632 478.093 436.834 478.809 436.834 478.809C436.834 478.809 483.964 498.133 490.38 499.767C496.797 501.401 501.188 501.564 504.539 494.211C507.888 486.856 504.574 469.916 499.127 468.374Z" fill="#9D9D9D" stroke="#111311" stroke-width="1.484" stroke-miterlimit="10" stroke-linecap="round" stroke-linejoin="round"/>
<path d="M397.385 476.355C397.385 476.355 404.802 469.503 406.608 468.664C408.414 467.828 411.932 466.901 411.932 466.901" stroke="#111311" stroke-width="1.484" stroke-miterlimit="10" stroke-linecap="round" stroke-linejoin="round"/>
<path d="M393.659 472.015L401.41 464.438L408.992 462.131" stroke="#111311" stroke-width="1.484" stroke-miterlimit="10" stroke-linecap="round" stroke-linejoin="round"/>
<path d="M218.368 267.352C218.368 267.352 220.381 268.56 223.606 269.77C226.829 270.978 234.886 273.799 238.513 277.828C242.138 281.857 240.93 291.527 240.93 291.527" stroke="#111311" stroke-width="1.484" stroke-miterlimit="10" stroke-linecap="round" stroke-linejoin="round"/>
<path d="M172.37 300.867L169.214 307.639" stroke="#111311" stroke-width="1.484" stroke-miterlimit="10" stroke-linecap="round" stroke-linejoin="round"/>
<path d="M146.926 279.601C146.926 279.601 144.728 289.98 142.508 292.359C140.288 294.738 136.761 297.548 137.932 302.738C139.104 307.927 145.944 311.17 145.923 312.035C145.902 312.9 133.52 315.279 133.857 319.172C134.195 323.064 137.54 327.82 137.54 327.82C137.54 327.82 128.384 330.848 127.609 336.037C126.834 341.227 129.952 346.416 129.906 348.363C129.859 350.309 124.347 354.633 125.994 358.094C127.639 361.553 131.542 361.121 131.743 361.77C131.942 362.418 129.497 365.229 129.455 366.959C129.412 368.688 130.674 370.202 130.674 370.202H203.759L183.031 262.087L155.528 272.681L146.926 279.601Z" fill="#21A038" stroke="#111311" stroke-width="1.484" stroke-miterlimit="10" stroke-linecap="round" stroke-linejoin="round"/>
<path d="M245.937 524.958C245.937 524.958 261.012 559.265 262.99 567.685C264.968 576.107 265.908 613.592 262.769 628.191C257.054 654.776 240.677 679.963 240.677 679.963H157.656L140.536 600.026L165.539 522.15L245.937 524.958Z" fill="#9D9D9D" stroke="#111311" stroke-width="1.484" stroke-miterlimit="10" stroke-linecap="round" stroke-linejoin="round"/>
<path d="M232.169 591.076L225.181 609.164L228.509 679.576" stroke="#111311" stroke-width="1.484" stroke-miterlimit="10" stroke-linecap="round" stroke-linejoin="round"/>
<path d="M244.618 502.189C244.618 502.189 259.286 514.664 261.043 519.343C262.802 524.021 263.924 554.898 264.731 560.199C265.538 565.501 261.985 570.491 261.985 570.491L249.339 538.991C249.339 538.991 248.12 524.957 247.831 524.021C247.542 523.084 245.228 515.599 245.228 515.599L244.618 502.189Z" fill="#9D9D9D" stroke="#111311" stroke-width="1.484" stroke-miterlimit="10" stroke-linecap="round" stroke-linejoin="round"/>
<path d="M256.708 530.883C256.708 530.883 256.885 536.495 257.41 540.551C257.935 544.605 259.624 552.09 256.149 553.962" fill="#9D9D9D"/>
<path d="M256.708 530.883C256.708 530.883 256.885 536.495 257.41 540.551C257.935 544.605 259.624 552.09 256.149 553.962" stroke="#111311" stroke-width="1.484" stroke-miterlimit="10" stroke-linecap="round" stroke-linejoin="round"/>
<path d="M191.39 369.324L211.335 369.948L225.593 370.418L242.175 384.295C242.175 384.295 256.091 453.534 257.232 457.9C258.373 462.266 245.415 495.015 244.404 498.132C243.392 501.252 245.936 524.956 245.936 524.956C245.936 524.956 239.555 530.881 218.903 533.688C198.251 536.494 174.447 527.762 174.447 527.762C174.447 527.762 190.105 486.593 193.448 464.449C193.448 464.449 196.357 421.721 195.404 409.558C194.452 397.394 191.39 369.324 191.39 369.324Z" fill="#21A038" stroke="#111311" stroke-width="1.484" stroke-miterlimit="10" stroke-linecap="round" stroke-linejoin="round"/>
<path d="M241.144 471.807L208.856 488.184" stroke="#111311" stroke-width="1.484" stroke-miterlimit="10" stroke-linecap="round" stroke-linejoin="round"/>
<path d="M239.271 477.423L224.298 484.909" stroke="#111311" stroke-width="1.484" stroke-miterlimit="10" stroke-linecap="round" stroke-linejoin="round"/>
<path d="M185.927 346.399C185.927 346.399 197.924 387.935 199.475 395.286C201.027 402.638 216.386 411.287 225.799 406.529C235.212 401.773 232.19 392.691 230.597 387.07C229.003 381.447 225.595 370.419 225.595 370.419L229.225 336.686C229.225 336.686 217.829 351.823 213.678 353.552C209.527 355.282 185.927 346.399 185.927 346.399Z" fill="#9D9D9D" stroke="#111311" stroke-width="1.484" stroke-miterlimit="10" stroke-linecap="round" stroke-linejoin="round"/>
<path d="M208.371 357.327L224.091 372.496L227.953 339.952L208.371 357.327Z" fill="#111311" stroke="#111311" stroke-width="1.484" stroke-miterlimit="10" stroke-linecap="round" stroke-linejoin="round"/>
<path d="M224.643 370.842L223.816 385.733" stroke="#111311" stroke-width="1.484" stroke-miterlimit="10" stroke-linecap="round" stroke-linejoin="round"/>
<path d="M225.701 366.987C225.701 366.987 247.917 430.453 250.376 444.801C252.835 459.148 253.383 462.267 253.574 467.256C253.765 472.246 249.757 483.163 249.757 483.163C249.757 483.163 265.508 463.825 265.606 446.985C265.703 430.142 254.261 379.27 248.922 376.186C227.697 363.93 225.701 366.987 225.701 366.987Z" fill="#111311" stroke="#111311" stroke-width="1.484" stroke-miterlimit="10" stroke-linecap="round" stroke-linejoin="round"/>
<path d="M246.324 398.278C246.324 398.278 255.809 426.826 254.672 448.118" stroke="#111311" stroke-width="1.484" stroke-miterlimit="10" stroke-linecap="round" stroke-linejoin="round"/>
<path d="M170.946 296.684L181.024 282.413L227.662 329.767C227.662 329.767 224.828 357.445 224.807 358.31C224.786 359.175 227.698 363.932 227.698 363.932C227.698 363.932 228.969 365.014 230.013 366.527C231.057 368.041 229.977 368.041 229.708 370.203C229.44 372.365 230.927 373.447 231.982 374.529C233.037 375.609 235.604 376.691 237.097 377.556C238.59 378.42 237.246 380.366 236.118 382.313C234.988 384.258 233.386 387.935 235.238 391.826C237.09 395.719 238.186 395.069 241.356 398.096C244.526 401.124 239.918 403.936 239.918 403.936C239.918 403.936 242.312 403.286 244.274 402.639C246.236 401.989 247.153 399.827 246.325 398.313C245.497 396.799 243.887 391.826 244.557 390.961C245.227 390.098 251.354 387.07 253.142 384.69C254.929 382.313 252.994 381.881 254.528 381.016C256.063 380.15 259.138 378.203 259.86 375.176C260.582 372.15 256.995 368.473 258.102 367.392C259.21 366.311 263.368 359.653 263.416 357.708C263.462 355.761 260.999 352.469 260.999 352.469C260.999 352.469 262.604 351.175 263.622 344.904C264.639 338.634 259.712 336.687 259.365 333.228C259.016 329.767 264.105 325.011 264.182 312.901C264.259 300.793 244.238 297.118 243.627 295.602C243.015 294.089 243.722 291.71 243.367 288.467C243.014 285.223 235.15 279.602 235.15 279.602C235.15 279.602 236.093 276.358 236.795 274.196C237.495 272.034 236.462 270.088 232.654 266.627C228.845 263.168 210.427 246.951 202.685 245.221C194.941 243.49 181.98 251.924 180.444 252.789C178.91 253.654 166.658 250.627 162.909 253.654C159.159 256.68 157.953 261.871 157.034 264.033C156.117 266.195 152.874 266.195 150.875 268.358C148.876 270.52 145.61 289.333 145.61 289.333" fill="#21A038"/>
<path d="M170.946 296.684L181.024 282.413L227.662 329.767C227.662 329.767 224.828 357.445 224.807 358.31C224.786 359.175 227.698 363.932 227.698 363.932C227.698 363.932 228.969 365.014 230.013 366.527C231.057 368.041 229.977 368.041 229.708 370.203C229.44 372.365 230.927 373.447 231.982 374.529C233.037 375.609 235.604 376.691 237.097 377.556C238.59 378.42 237.246 380.366 236.118 382.313C234.988 384.258 233.386 387.935 235.238 391.826C237.09 395.719 238.186 395.069 241.356 398.096C244.526 401.124 239.918 403.936 239.918 403.936C239.918 403.936 242.312 403.286 244.274 402.639C246.236 401.989 247.153 399.827 246.325 398.313C245.497 396.799 243.887 391.826 244.557 390.961C245.227 390.098 251.354 387.07 253.142 384.69C254.929 382.313 252.994 381.881 254.528 381.016C256.063 380.15 259.138 378.203 259.86 375.176C260.582 372.15 256.995 368.473 258.102 367.392C259.21 366.311 263.368 359.653 263.416 357.708C263.462 355.761 260.999 352.469 260.999 352.469C260.999 352.469 262.604 351.175 263.622 344.904C264.639 338.634 259.712 336.687 259.365 333.228C259.016 329.767 264.105 325.011 264.182 312.901C264.259 300.793 244.238 297.118 243.627 295.602C243.015 294.089 243.722 291.71 243.367 288.467C243.014 285.223 235.15 279.602 235.15 279.602C235.15 279.602 236.093 276.358 236.794 274.196C237.495 272.034 236.462 270.088 232.654 266.627C228.845 263.168 210.427 246.951 202.685 245.221C194.941 243.49 181.98 251.924 180.444 252.789C178.91 253.654 166.658 250.627 162.909 253.654C159.159 256.68 157.953 261.871 157.034 264.033C156.117 266.195 152.874 266.195 150.875 268.358C148.876 270.52 145.61 289.333 145.61 289.333" stroke="#111311" stroke-width="1.484" stroke-miterlimit="10" stroke-linecap="round" stroke-linejoin="round"/>
<path d="M190.137 362.308C190.137 362.308 212.713 441.681 213.711 451.974C214.709 462.266 179.392 529.633 172.188 543.667C164.987 557.703 149.292 600.43 146.753 615.089C144.214 629.748 142.231 647.212 142.231 647.212C142.231 647.212 123.426 638.169 111.14 630.372C98.8536 622.575 96.776 618.207 97.7495 616.649C98.723 615.089 103.871 595.753 103.871 595.753C103.871 595.753 93.2426 583.9 93.8955 582.652C94.55 581.406 118.707 498.444 118.707 498.444C118.707 498.444 125.064 364.958 127.56 364.958C130.055 364.958 190.137 362.308 190.137 362.308Z" fill="#111311" stroke="#111311" stroke-width="1.484" stroke-miterlimit="10" stroke-linecap="round" stroke-linejoin="round"/>
<path d="M187.858 400.21L213.711 451.976" stroke="#111311" stroke-width="1.484" stroke-miterlimit="10" stroke-linecap="round" stroke-linejoin="round"/>
<path d="M142.508 365.893C142.508 365.893 123.886 362.151 120.646 367.14C117.405 372.131 88.8453 456.652 87.0972 464.449C85.3475 472.246 138.84 529.944 138.84 529.944L166.42 511.544L133.849 465.695L151.656 400.201" fill="#111311"/>
<path d="M142.508 365.893C142.508 365.893 123.886 362.151 120.646 367.14C117.405 372.131 88.8453 456.652 87.0972 464.449C85.3475 472.246 138.84 529.944 138.84 529.944L166.42 511.544L133.849 465.695L151.656 400.201" stroke="#111311" stroke-width="1.484" stroke-miterlimit="10" stroke-linecap="round" stroke-linejoin="round"/>
<path d="M146.979 420.557L133.684 461.652L163.429 506.242" stroke="#111311" stroke-width="1.484" stroke-miterlimit="10" stroke-linecap="round" stroke-linejoin="round"/>
<path d="M150.605 407.666L148.7 413.743" stroke="#111311" stroke-width="1.484" stroke-miterlimit="10" stroke-linecap="round" stroke-linejoin="round"/>
<path d="M163.287 506.239L133.507 531.037L143.638 543.344L174.971 519.187L163.287 506.239Z" fill="#9D9D9D" stroke="#111311" stroke-width="1.484" stroke-miterlimit="10" stroke-linecap="round" stroke-linejoin="round"/>
<path d="M172.758 520.278C172.758 520.278 197.667 547.723 200.444 548.971C203.22 550.219 208.69 556.144 210.182 558.951C211.673 561.757 213.766 565.501 215.91 567.059C218.056 568.619 218.323 570.49 214.557 571.427C210.792 572.362 207.353 572.675 205.276 568.307C203.2 563.941 199.867 559.886 199.867 559.886L178.584 575.793C178.584 575.793 174.003 558.951 173.463 555.52C172.922 552.09 171.81 546.475 171.81 546.475L157.485 532.752L172.758 520.278Z" fill="#9D9D9D" stroke="#111311" stroke-width="1.484" stroke-miterlimit="10" stroke-linecap="round" stroke-linejoin="round"/>
<path d="M137.858 343.173C137.858 343.173 135.793 357.009 136.975 361.769C138.226 366.807 148.363 365.904 146.284 372.593C145.613 374.75 142.994 377.05 143.813 379.497C144.653 382.004 147.952 382.146 149.785 383.569C153.152 386.185 151.947 388.992 153.091 392.694C153.919 395.37 156.768 396.294 157.538 398.417C158.453 400.929 156.7 402.501 159.49 405.233C164.347 409.99 168.002 410.854 168.661 410.422C169.32 409.99 168.05 408.908 171.113 407.395C174.177 405.881 180.083 403.07 179.061 400.692C178.053 398.35 177.046 396.01 177.022 395.952C178.448 399.236 182.876 395.919 184.086 394.19C186.849 390.246 182.624 385.997 183.118 381.733C183.664 377.008 188.986 374.575 189.581 369.812C190.163 365.15 185.32 361.938 186.376 357.661C186.855 355.716 187.123 353.552 187.123 353.552C187.123 353.552 185.715 349.228 183.589 347.714C181.463 346.201 180.745 340.146 180.582 337.984" fill="#21A038"/>
<path d="M137.858 343.173C137.858 343.173 135.793 357.009 136.975 361.769C138.226 366.807 148.363 365.904 146.284 372.593C145.613 374.75 142.994 377.05 143.813 379.497C144.653 382.004 147.952 382.146 149.785 383.569C153.152 386.185 151.947 388.992 153.091 392.694C153.919 395.37 156.768 396.294 157.538 398.417C158.453 400.929 156.7 402.501 159.49 405.233C164.347 409.99 168.002 410.854 168.661 410.422C169.32 409.99 168.05 408.908 171.113 407.395C174.177 405.881 180.083 403.07 179.061 400.692C178.053 398.35 177.046 396.01 177.022 395.952C178.448 399.236 182.876 395.919 184.086 394.19C186.849 390.246 182.624 385.997 183.118 381.733C183.664 377.008 188.986 374.575 189.581 369.812C190.163 365.15 185.32 361.938 186.376 357.661C186.855 355.716 187.123 353.552 187.123 353.552C187.123 353.552 185.715 349.228 183.589 347.714C181.463 346.201 180.745 340.146 180.582 337.984" stroke="#111311" stroke-width="1.484" stroke-miterlimit="10" stroke-linecap="round" stroke-linejoin="round"/>
<path d="M176.756 274.612C176.756 274.612 159.275 300.03 160.612 305.407C161.948 310.785 175.287 345.246 179.848 348.668C184.408 352.089 202.789 360.156 208.892 360.401C214.996 360.644 219.454 358.2 222.001 354.045C224.546 349.891 234.242 333.025 234.33 329.36C234.419 325.693 226.595 290.509 225.141 290.02C223.686 289.531 176.756 274.612 176.756 274.612Z" fill="#9D9D9D" stroke="black" stroke-width="1.484" stroke-miterlimit="10" stroke-linecap="round" stroke-linejoin="round"/>
<path d="M203.47 301.617C203.47 301.617 202.967 308.402 203.591 310.606C204.216 312.811 209.959 320.781 210.094 322.139C210.232 323.496 207.995 324.852 204.912 326.039" stroke="#111311" stroke-width="1.484" stroke-miterlimit="10" stroke-linecap="round" stroke-linejoin="round"/>
<path d="M164.014 315.912C164.014 315.912 160.189 312.485 158.139 316.641C156.089 320.797 157.667 326.422 164.149 331.073C170.632 335.723 172.096 335.725 172.096 335.725L164.014 315.912Z" fill="#9D9D9D" stroke="#111311" stroke-width="1.484" stroke-miterlimit="10" stroke-linecap="round" stroke-linejoin="round"/>
<path d="M227.984 298.807C227.984 298.807 231.446 297.096 233.052 301.496C234.656 305.895 232.184 317.139 232.184 317.139L227.984 298.807Z" fill="#9D9D9D" stroke="#111311" stroke-width="1.484" stroke-miterlimit="10" stroke-linecap="round" stroke-linejoin="round"/>
<path d="M194.837 334.593C194.837 334.593 206.094 333.999 208.823 332.673C211.551 331.343 216.231 325.772 216.231 325.772C216.231 325.772 216.531 338.281 210.63 340.276C206.483 341.678 194.837 334.593 194.837 334.593Z" fill="#9D9D9D" stroke="#111311" stroke-width="1.484" stroke-miterlimit="10" stroke-linecap="round" stroke-linejoin="round"/>
<path d="M176.39 308.229C176.39 308.229 177.104 301.657 188.4 300.663L176.39 308.229Z" fill="#9D9D9D"/>
<path d="M176.39 308.229C176.39 308.229 177.104 301.657 188.4 300.663" stroke="#111311" stroke-width="1.484" stroke-miterlimit="10" stroke-linecap="round" stroke-linejoin="round"/>
<path d="M203.304 296.157C203.304 296.157 210.244 289.934 217.623 297.376L203.304 296.157Z" fill="#9D9D9D"/>
<path d="M203.304 296.157C203.304 296.157 210.244 289.934 217.623 297.376" stroke="#111311" stroke-width="1.484" stroke-miterlimit="10" stroke-linecap="round" stroke-linejoin="round"/>
<path d="M190.202 311.559C190.829 313.576 190.253 315.542 188.914 315.954C187.575 316.362 185.98 315.06 185.352 313.043C184.726 311.025 185.301 309.058 186.641 308.647C187.98 308.238 189.574 309.54 190.202 311.559Z" fill="#111311"/>
<path d="M213.275 305.167C213.902 307.186 213.325 309.152 211.986 309.562C210.648 309.973 209.053 308.669 208.426 306.65C207.797 304.634 208.374 302.666 209.713 302.256C211.052 301.847 212.647 303.149 213.275 305.167Z" fill="#111311"/>
</g>
<defs>
<clipPath id="clip0_1_1089">
<rect width="742" height="671.333" fill="white" transform="translate(0 0.143066)"/>
</clipPath>
</defs>
</svg>
