<svg width="150" height="150" viewBox="0 0 150 150" fill="none" xmlns="http://www.w3.org/2000/svg">
<path d="M75 0.333252C60.2323 0.333252 45.7962 4.71238 33.5174 12.9169C21.2385 21.1213 11.6683 32.7827 6.01695 46.4262C0.365604 60.0698 -1.11305 75.0827 1.76798 89.5667C4.64901 104.051 11.7603 117.355 22.2026 127.797C32.645 138.24 45.9493 145.351 60.4332 148.232C74.9171 151.113 89.9301 149.634 103.574 143.983C117.217 138.332 128.879 128.761 137.083 116.483C145.288 104.204 149.667 89.7676 149.667 74.9999C149.667 55.1971 141.8 36.2053 127.797 22.2026C113.795 8.1999 94.8028 0.333252 75 0.333252ZM123.767 49.9399L62.4466 111.213L26.2333 74.9999C24.9956 73.7622 24.3003 72.0836 24.3003 70.3333C24.3003 68.5829 24.9956 66.9043 26.2333 65.6666C27.471 64.4289 29.1496 63.7336 30.9 63.7336C32.6503 63.7336 34.3289 64.4289 35.5666 65.6666L62.54 92.6399L114.527 40.6999C115.139 40.0871 115.867 39.601 116.668 39.2693C117.468 38.9376 118.327 38.7669 119.193 38.7669C120.06 38.7669 120.918 38.9376 121.719 39.2693C122.52 39.601 123.247 40.0871 123.86 40.6999C124.473 41.3128 124.959 42.0403 125.291 42.841C125.622 43.6417 125.793 44.4999 125.793 45.3666C125.793 46.2333 125.622 47.0915 125.291 47.8922C124.959 48.6929 124.473 49.4204 123.86 50.0333L123.767 49.9399Z" fill="#21A038"/>
<path d="M123.767 49.9399L62.4466 111.213L26.2333 74.9999C24.9956 73.7622 24.3003 72.0836 24.3003 70.3333C24.3003 68.5829 24.9956 66.9043 26.2333 65.6666C27.471 64.4289 29.1496 63.7336 30.9 63.7336C32.6503 63.7336 34.3289 64.4289 35.5666 65.6666L62.54 92.6399L114.527 40.6999C115.139 40.0871 115.867 39.601 116.668 39.2693C117.468 38.9376 118.327 38.7669 119.193 38.7669C120.06 38.7669 120.918 38.9376 121.719 39.2693C122.52 39.601 123.247 40.0871 123.86 40.6999C124.473 41.3128 124.959 42.0403 125.291 42.841C125.622 43.6417 125.793 44.4999 125.793 45.3666C125.793 46.2333 125.622 47.0915 125.291 47.8922C124.959 48.6929 124.473 49.4204 123.86 50.0333L123.767 49.9399Z" fill="white"/>
</svg>
