<svg width="24" height="40" viewBox="0 0 24 40" fill="none" xmlns="http://www.w3.org/2000/svg">
<path d="M7.36884 20.0206L22.1825 35C22.7396 35.5571 22.9918 36.1654 23.0181 37C23.0445 37.8346 22.7923 38.5546 22.1825 39.1644C21.6254 39.7215 20.9164 40 20.0554 40C19.1944 40 18.4854 39.7215 17.9283 39.1644L0.911608 22.1477C0.303869 21.5399 0 20.8309 0 20.0206C0 19.2102 0.303869 18.5012 0.911608 17.8935L17.9283 0.876778C18.4854 0.319683 19.1823 0.0279694 20.0189 0.00163269C20.8556 -0.024704 21.5768 0.267014 22.1825 0.876778C22.7396 1.43387 23.0181 2.1429 23.0181 3.00386C23.0181 3.86483 22.7396 4.57386 22.1825 5.13095L7.36884 20.0206Z" fill="white"/>
</svg>
