<svg width="24" height="40" viewBox="0 0 24 40" fill="none" xmlns="http://www.w3.org/2000/svg">
<path d="M15.6712 20.0206L0.857552 35C0.300457 35.5571 0.0482426 36.1654 0.0219078 37C-0.00442696 37.8346 0.247786 38.5546 0.857552 39.1644C1.41465 39.7215 2.12367 40 2.98464 40C3.8456 40 4.55463 39.7215 5.11173 39.1644L22.1284 22.1477C22.7362 21.5399 23.04 20.8309 23.04 20.0206C23.04 19.2102 22.7362 18.5012 22.1284 17.8935L5.11173 0.876778C4.55463 0.319683 3.85776 0.0279694 3.0211 0.00163269C2.18445 -0.024704 1.46326 0.267014 0.857552 0.876778C0.300457 1.43387 0.0219078 2.1429 0.0219078 3.00386C0.0219078 3.86483 0.300457 4.57386 0.857552 5.13095L15.6712 20.0206Z" fill="white"/>
</svg>
