<svg width="40" height="40" viewBox="0 0 40 40" fill="none" xmlns="http://www.w3.org/2000/svg">
<circle cx="20" cy="20" r="20" fill="white"/>
<path d="M22.0875 24.4216H10.9296V20.8727H21.9648C22.7966 20.8727 23.4784 20.75 24.0102 20.5046C24.5421 20.2591 24.9341 19.9114 25.1864 19.4614C25.4387 19.0114 25.5648 18.4796 25.5648 17.8659C25.5648 17.2659 25.4387 16.7239 25.1864 16.2398C24.9341 15.7557 24.5489 15.3705 24.0307 15.0841C23.5125 14.7977 22.8648 14.6546 22.0875 14.6546H18.3034V32H13.9057V11.0546H22.0875C23.7443 11.0546 25.1625 11.3512 26.3421 11.9443C27.5284 12.5307 28.4352 13.3352 29.0625 14.358C29.6898 15.3739 30 16.5262 29.9932 17.8148C30 19.1648 29.683 20.3341 29.0421 21.3227C28.4012 22.3114 27.4875 23.075 26.3012 23.6137C25.1148 24.1523 23.7102 24.4216 22.0875 24.4216ZM22.875 25.7716V29.3205H10.9296V25.7716H22.875Z" fill="#21A038"/>
</svg>
