<svg width="43" height="42" viewBox="0 0 43 42" fill="none" xmlns="http://www.w3.org/2000/svg">
<path d="M27.9024 0.166992H15.1191C3.44408 0.166992 0.666992 2.94408 0.666992 14.5982V27.3816C0.666992 39.0545 3.42324 41.8337 15.0982 41.8337H27.8816C39.5545 41.8337 42.3337 39.0774 42.3337 27.4024V14.6191C42.3337 2.94408 39.5774 0.166992 27.9024 0.166992ZM34.3045 29.8962H31.2649C30.1149 29.8962 29.7691 28.9649 27.7066 26.9024C25.9066 25.167 25.1462 24.9503 24.6899 24.9503C24.0607 24.9503 23.8878 25.1232 23.8878 25.992V28.7253C23.8878 29.4649 23.6482 29.8982 21.717 29.8982C19.8427 29.7723 18.0252 29.2029 16.4141 28.2369C14.803 27.2708 13.4444 25.9359 12.4503 24.342C10.0903 21.4045 8.44812 17.9569 7.65449 14.2732C7.65449 13.817 7.82741 13.4045 8.69616 13.4045H11.7337C12.5149 13.4045 12.7962 13.7524 13.1024 14.5545C14.5774 18.8962 17.0941 22.6712 18.1149 22.6712C18.5066 22.6712 18.6774 22.4982 18.6774 21.5212V17.0503C18.5482 15.0107 17.4649 14.8378 17.4649 14.1003C17.4788 13.9058 17.568 13.7244 17.7134 13.5944C17.8589 13.4645 18.0492 13.3964 18.2441 13.4045H23.0191C23.6712 13.4045 23.8878 13.7295 23.8878 14.5107V20.5441C23.8878 21.1962 24.1691 21.4128 24.3649 21.4128C24.7566 21.4128 25.0587 21.1962 25.7753 20.4795C27.3146 18.6023 28.5723 16.5109 29.5087 14.2712C29.6044 14.0021 29.7855 13.7718 30.0243 13.6153C30.2632 13.4588 30.5467 13.3848 30.8316 13.4045H33.8712C34.7816 13.4045 34.9753 13.8607 34.7816 14.5107C33.6763 16.9866 32.3088 19.3369 30.7024 21.5212C30.3753 22.0212 30.2441 22.2816 30.7024 22.867C31.0045 23.3232 32.0691 24.2128 32.7857 25.0587C33.8272 26.0975 34.6921 27.2994 35.3462 28.617C35.6066 29.4628 35.1712 29.8962 34.3045 29.8962Z" fill="#999999"/>
</svg>
