<svg width="43" height="42" viewBox="0 0 43 42" fill="none" xmlns="http://www.w3.org/2000/svg">
<path d="M21.5003 0.166992C10.0003 0.166992 0.666992 9.50033 0.666992 21.0003C0.666992 32.5003 10.0003 41.8337 21.5003 41.8337C33.0003 41.8337 42.3337 32.5003 42.3337 21.0003C42.3337 9.50033 33.0003 0.166992 21.5003 0.166992ZM31.167 14.3337C30.8545 17.6253 29.5003 25.6253 28.8128 29.3128C28.5212 30.8753 27.9378 31.3962 27.3962 31.4587C26.1878 31.5628 25.2712 30.667 24.1045 29.8962C22.2712 28.6878 21.2295 27.9378 19.4587 26.7712C17.3962 25.417 18.7295 24.667 19.917 23.4587C20.2295 23.1462 25.5628 18.292 25.667 17.8545C25.6815 17.7882 25.6795 17.7194 25.6614 17.6541C25.6432 17.5887 25.6094 17.5288 25.5628 17.4795C25.4378 17.3753 25.2712 17.417 25.1253 17.4378C24.9378 17.4795 22.0212 19.417 16.3337 23.2503C15.5003 23.8128 14.7503 24.1045 14.0837 24.0837C13.3337 24.0628 11.917 23.667 10.8545 23.3128C9.54199 22.8962 8.52116 22.667 8.60449 21.9378C8.64616 21.5628 9.16699 21.1878 10.1462 20.792C16.2295 18.1462 20.2712 16.3962 22.292 15.5628C28.0837 13.1462 29.2712 12.7295 30.0628 12.7295C30.2295 12.7295 30.6253 12.7712 30.8753 12.9795C31.0837 13.1462 31.1462 13.3753 31.167 13.542C31.1462 13.667 31.1878 14.042 31.167 14.3337Z" fill="#999999"/>
</svg>
